<svg width="64" height="64" viewBox="0 0 64 64" fill="none" xmlns="http://www.w3.org/2000/svg">
<path opacity="0.4" d="M58.6671 50.6667V42.6667C58.6671 38.2485 55.0853 34.6667 50.6671 34.6667H48.0004C46.3217 34.6667 44.741 35.4571 43.7337 36.8001L40.5337 41.0667C38.5193 43.7527 35.3578 45.3334 32.0004 45.3334C28.643 45.3334 25.4815 43.7527 23.4671 41.0667L20.2671 36.8001C19.2598 35.4571 17.6791 34.6667 16.0004 34.6667H13.3337C8.91546 34.6667 5.33374 38.2485 5.33374 42.6667V50.6667C5.33374 55.085 8.91546 58.6667 13.3337 58.6667H50.6671C55.0853 58.6667 58.6671 55.085 58.6671 50.6667Z" fill="#4FF6AE"/>
<path fill-rule="evenodd" clip-rule="evenodd" d="M13.3332 34.6666H15.9998C17.6785 34.6666 19.2593 35.457 20.2665 36.7999L23.4665 41.0666C25.481 43.7525 28.6424 45.3333 31.9998 45.3333C35.3573 45.3333 38.5187 43.7525 40.5332 41.0666L43.7332 36.7999C44.7404 35.457 46.3211 34.6666 47.9998 34.6666H50.6665C51.6015 34.6666 52.4991 34.827 53.3332 35.1218V15.9999C53.3332 10.1089 48.5575 5.33325 42.6665 5.33325H21.3332C15.4421 5.33325 10.6665 10.1089 10.6665 15.9999V35.1218C11.5006 34.827 12.3981 34.6666 13.3332 34.6666ZM29.6433 18.5188C29.7565 18.4056 29.8759 18.3022 30.0003 18.2086V29.3333C30.0003 30.4379 30.8958 31.3333 32.0003 31.3333C33.1049 31.3333 34.0003 30.4379 34.0003 29.3333V18.2086C34.1247 18.3022 34.2441 18.4055 34.3573 18.5188L38.5861 22.7476C39.3672 23.5286 40.6335 23.5286 41.4145 22.7476C42.1956 21.9665 42.1956 20.7002 41.4145 19.9191L37.1858 15.6904C34.3219 12.8265 29.6787 12.8265 26.8149 15.6904L22.5861 19.9191C21.8051 20.7002 21.8051 21.9665 22.5861 22.7476C23.3672 23.5286 24.6335 23.5286 25.4145 22.7476L29.6433 18.5188Z" fill="#4FF6AE"/>
</svg>
