<svg width="4" height="12" viewBox="0 0 4 12" fill="none" xmlns="http://www.w3.org/2000/svg">
<path d="M3.25 10.5C3.25 10.7472 3.17669 10.9889 3.03934 11.1945C2.90199 11.4 2.70676 11.5602 2.47836 11.6548C2.24995 11.7495 1.99861 11.7742 1.75614 11.726C1.51366 11.6778 1.29093 11.5587 1.11612 11.3839C0.941302 11.2091 0.82225 10.9863 0.774019 10.7439C0.725787 10.5014 0.750542 10.2501 0.845151 10.0216C0.939761 9.79324 1.09998 9.59801 1.30554 9.46066C1.5111 9.32331 1.75277 9.25 2 9.25C2.33152 9.25 2.64946 9.3817 2.88388 9.61612C3.1183 9.85054 3.25 10.1685 3.25 10.5ZM2 8C2.19891 8 2.38968 7.92098 2.53033 7.78033C2.67098 7.63968 2.75 7.44891 2.75 7.25V1C2.75 0.801088 2.67098 0.610322 2.53033 0.46967C2.38968 0.329018 2.19891 0.25 2 0.25C1.80109 0.25 1.61032 0.329018 1.46967 0.46967C1.32902 0.610322 1.25 0.801088 1.25 1V7.25C1.25 7.44891 1.32902 7.63968 1.46967 7.78033C1.61032 7.92098 1.80109 8 2 8Z" fill="white"/>
</svg>
